<svg width="36" height="34" viewBox="0 0 36 34" fill="none" xmlns="http://www.w3.org/2000/svg">
<path d="M15.7705 1.13764C25.1686 -0.0346764 33.3723 6.53116 33.3723 16.928C33.3723 26.6992 26.1243 33.0313 18.0006 33.0313C9.87695 33.0313 2.62831 26.6992 2.62831 16.928C2.62831 8.71998 7.32738 3.17002 10.5932 3.32646C13.0622 3.48289 14.5754 8.48564 16.248 11.7689C18.6376 16.7716 21.3452 22.4001 21.5846 24.276H27.16C26.0449 22.7909 23.496 17.7881 20.3102 11.6124C17.2037 5.59318 16.0092 2.54429 11.2302 2.77925C5.416 3.0915 0 9.89291 0 16.928C0 25.9962 7.64616 33.5 18 33.5C28.3538 33.5 36 25.8391 36 16.928C36.0006 6.84402 26.2837 -0.738314 15.4517 0.668338L15.7705 1.13764Z" fill="#FFFFFE"/>
</svg>
