<svg width="824" height="200" viewBox="0 0 824 200" fill="none" xmlns="http://www.w3.org/2000/svg">
<path d="M264.362 2.25561L243.193 2.28143C240.007 12.2078 222.213 42.9168 209.143 64.1556C195.566 42.9426 177.257 12.2681 173.891 2.35031L152.722 2.37614C155.015 13.0601 155.196 38.1043 155.213 55.9683C155.23 73.8324 155.11 98.8765 152.834 109.569L173.393 109.552C171.246 99.3242 170.894 53.971 170.877 30.7606C184.153 51.0525 196.966 72.4205 205.82 88.2958H211.453C219.963 72.2483 233.042 50.8545 246.276 30.3818C246.302 53.4372 246.044 99.1003 243.923 109.483L264.482 109.466C262.189 98.7818 262.008 73.7377 261.991 55.8736C261.974 38.0096 262.103 12.9654 264.37 2.27283M3.67575e-05 56.5882C0.0343873 88.1925 23.513 111.532 55.0467 111.506C86.8811 111.472 110.918 87.4779 110.892 55.5637C110.858 23.9594 87.3791 0.619861 55.8454 0.645689C24.011 0.680126 -0.0343137 24.6739 3.67575e-05 56.5882ZM17.6648 54.2809C17.639 30.3043 32.092 14.4118 53.8788 14.3859C78.4051 14.3601 93.193 34.1957 93.2187 57.8623C93.2445 81.8389 78.7915 97.7315 57.0047 97.7573C32.4784 97.7831 17.6905 77.9476 17.6648 54.2809ZM311.697 109.406L332.255 109.388C330.108 99.3156 329.765 58.3875 329.739 30.1408C352.161 56.6829 374.12 82.321 390.746 109.328L408.874 109.311C406.581 97.5593 406.246 73.7377 406.229 55.7187C406.212 38.0009 406.487 12.8105 408.762 2.11786L388.204 2.13508C390.351 12.2078 390.694 53.1359 390.72 81.3826C368.298 54.6855 346.339 28.5911 329.713 2.19534L311.585 2.21256C313.878 12.8966 314.058 37.9407 314.075 55.8047C314.092 73.6688 313.972 98.7129 311.697 109.406ZM456.089 109.251L476.648 109.233C474.355 98.5493 474.174 73.6602 474.157 55.7961C474.14 37.9321 474.26 12.733 476.536 2.04038L455.977 2.0576C458.27 12.7416 458.45 37.9407 458.468 55.8047C458.485 73.6688 458.356 98.558 456.089 109.251ZM510.964 2.00594C519.809 12.6813 536.898 39.697 553.988 69.4503L554.005 83.9568C554.014 93.117 553.876 102.131 552.356 109.156L572.769 109.139C571.24 102.114 571.077 93.1083 571.069 83.9482L571.051 69.4417C588.081 39.6453 604.955 12.6038 613.938 1.90263L591.851 1.92846C589.429 12.776 573.611 38.595 563.726 54.3326C553.507 38.6122 537.182 12.8277 534.58 1.98872L510.972 2.01455L510.964 2.00594ZM618 109.087L640.087 109.061C641.599 98.2222 660.904 57.8882 671.999 34.9705C683.292 57.8623 703.138 98.1533 704.675 108.992L728.282 108.966C720.957 98.2825 695.014 46.5499 673.029 0C651.148 46.5929 626.528 98.3858 618.009 109.087M734.44 19.4826C745.097 17.1839 757.592 17.0118 771.298 17.0031C771.332 47.5399 771.229 98.2394 768.953 108.932L789.667 108.906C787.374 98.2222 787.168 47.5227 787.133 16.9859C800.839 16.9687 813.334 17.1151 824 19.3879L823.983 1.67879L734.422 1.77349L734.44 19.4826Z" fill="white"/>
<path d="M133.306 170.755C133.701 170.78 134.285 170.806 135.075 170.841C135.856 170.867 136.758 170.892 137.788 170.918C138.81 170.944 139.901 170.961 141.069 170.978C142.228 170.996 143.405 170.996 144.581 170.996C146.264 170.996 148.016 170.978 149.854 170.944C151.692 170.918 153.658 170.841 155.754 170.729C155.616 171.435 155.548 171.977 155.548 172.373C155.548 172.545 155.565 172.735 155.591 172.941C155.616 173.148 155.676 173.458 155.762 173.845C154.5 173.708 153.135 173.621 151.666 173.596C150.198 173.57 148.772 173.553 147.398 173.561C147.398 173.785 147.398 174.095 147.381 174.491C147.364 174.887 147.355 175.292 147.338 175.713C147.321 176.135 147.321 176.531 147.321 176.893V177.737L147.338 194.335C147.338 195.179 147.364 196.057 147.407 196.97C147.45 197.882 147.527 198.777 147.638 199.647C146.634 199.535 145.912 199.466 145.492 199.44C145.071 199.415 144.753 199.397 144.521 199.397C144.349 199.397 144.083 199.423 143.705 199.458C143.327 199.501 142.658 199.561 141.713 199.647C141.713 199.199 141.739 198.623 141.799 197.917C141.85 197.219 141.902 196.427 141.945 195.558C141.988 194.688 142.031 193.776 142.065 192.82C142.108 191.864 142.125 190.926 142.125 189.996L142.074 177.616V176.858C142.074 176.523 142.065 176.161 142.048 175.782C142.031 175.404 142.022 175.016 142.005 174.62C141.988 174.224 141.979 173.88 141.979 173.57H141.181C140.511 173.57 139.798 173.578 139.059 173.596C138.321 173.613 137.6 173.63 136.921 173.664C136.234 173.69 135.573 173.725 134.946 173.768C134.319 173.811 133.778 173.845 133.331 173.871C133.383 173.587 133.435 173.32 133.477 173.07C133.52 172.821 133.538 172.563 133.538 172.313C133.538 172.063 133.52 171.805 133.495 171.555C133.469 171.306 133.409 171.039 133.323 170.755H133.306Z" fill="white"/>
<path d="M164.642 170.72C165.595 170.858 166.308 170.935 166.789 170.953C167.261 170.97 167.562 170.97 167.673 170.97C167.759 170.97 167.94 170.97 168.223 170.944C168.506 170.927 168.807 170.91 169.125 170.884C169.442 170.858 169.752 170.823 170.026 170.798C170.31 170.772 170.49 170.737 170.576 170.712C170.439 172.003 170.344 173.63 170.284 175.602C170.232 177.564 170.207 179.941 170.207 182.721C171.211 182.773 172.311 182.816 173.504 182.842C174.698 182.868 175.72 182.885 176.596 182.885C177.214 182.885 177.936 182.885 178.76 182.859C179.584 182.842 180.383 182.825 181.156 182.79C181.929 182.764 182.59 182.739 183.148 182.721C183.706 182.704 184.059 182.696 184.196 182.696C184.196 181.878 184.187 180.965 184.17 179.941C184.153 178.916 184.136 177.874 184.127 176.807C184.11 175.739 184.084 174.68 184.041 173.63C183.998 172.58 183.947 171.598 183.895 170.703C184.342 170.763 184.9 170.815 185.553 170.867C186.214 170.918 186.678 170.953 186.961 170.953C187.047 170.953 187.219 170.953 187.485 170.927C187.751 170.91 188.035 170.892 188.344 170.867C188.653 170.841 188.954 170.806 189.245 170.78C189.537 170.755 189.752 170.72 189.898 170.694C189.761 171.676 189.632 173.682 189.503 176.721C189.383 179.751 189.323 184.082 189.331 189.695C189.331 191.046 189.34 192.235 189.357 193.276C189.374 194.318 189.4 195.231 189.443 196.014C189.486 196.797 189.529 197.478 189.572 198.054C189.615 198.631 189.675 199.139 189.761 199.595C189.254 199.544 188.739 199.483 188.206 199.432C187.674 199.38 187.167 199.346 186.695 199.346C186.223 199.346 185.733 199.372 185.244 199.432C184.754 199.492 184.282 199.544 183.835 199.604C183.835 199.552 183.852 199.199 183.878 198.571C183.904 197.942 183.938 197.219 183.981 196.419C184.024 195.618 184.067 194.834 184.102 194.077C184.144 193.319 184.162 192.803 184.162 192.519L184.196 185.399C183.552 185.373 182.882 185.347 182.178 185.313C181.474 185.287 180.812 185.27 180.186 185.252C179.559 185.235 178.992 185.235 178.485 185.235H177.395C176.811 185.235 176.141 185.244 175.402 185.261C174.664 185.278 173.942 185.296 173.264 185.33C172.577 185.356 171.95 185.382 171.392 185.399C170.834 185.416 170.439 185.425 170.215 185.425V190.392C170.215 191.821 170.241 193.259 170.284 194.688C170.327 196.117 170.439 197.762 170.602 199.613L169.382 199.483C168.876 199.397 168.317 199.354 167.699 199.363C167.167 199.363 166.677 199.389 166.231 199.449C165.784 199.509 165.277 199.561 164.719 199.621C164.857 196.815 164.951 193.896 165.003 190.883C165.054 187.861 165.08 184.512 165.08 180.836C165.08 179.829 165.071 178.882 165.054 178.012C165.037 177.143 165.011 176.308 164.968 175.507C164.925 174.706 164.882 173.923 164.839 173.148C164.797 172.373 164.736 171.572 164.651 170.729L164.642 170.72Z" fill="white"/>
<path d="M201.955 170.686C203.664 170.798 205.167 170.867 206.472 170.892C207.778 170.918 208.791 170.935 209.521 170.935H210.38C210.697 170.935 211.144 170.918 211.702 170.892C212.26 170.867 212.982 170.832 213.866 170.806C214.751 170.78 215.893 170.737 217.293 170.677C217.207 170.987 217.155 171.228 217.121 171.417C217.095 171.598 217.078 171.822 217.078 172.072C217.078 172.657 217.147 173.165 217.293 173.587C216.451 173.561 215.609 173.518 214.768 173.466C213.926 173.415 213.085 173.372 212.243 173.346C211.402 173.32 210.569 173.303 209.744 173.303H207.494L207.503 183.203C208.43 183.203 209.358 183.195 210.294 183.178C211.23 183.16 212.123 183.143 212.964 183.109C213.806 183.083 214.536 183.049 215.171 183.023C215.798 182.997 216.271 182.954 216.58 182.894C216.494 183.178 216.442 183.427 216.417 183.651C216.391 183.875 216.374 184.125 216.374 184.409C216.374 184.994 216.442 185.476 216.588 185.838C215.858 185.786 215.146 185.735 214.442 185.692C213.737 185.648 213.025 185.623 212.295 185.605C211.565 185.588 210.809 185.58 210.028 185.562C209.246 185.545 208.404 185.545 207.503 185.545V196.961C207.966 196.961 208.636 196.961 209.529 196.935C210.423 196.918 211.376 196.901 212.389 196.866C213.394 196.84 214.373 196.797 215.309 196.754C216.245 196.711 216.992 196.677 217.559 196.651C217.421 196.961 217.353 197.426 217.353 198.037C217.353 198.648 217.421 199.165 217.567 199.552C214.991 199.389 212.423 199.303 209.882 199.311C208.619 199.311 207.365 199.337 206.12 199.38C204.875 199.423 203.492 199.492 201.981 199.578C202.032 198.459 202.093 197.236 202.144 195.936C202.196 194.628 202.239 193.328 202.264 192.019C202.29 190.711 202.307 189.445 202.324 188.205C202.333 186.974 202.342 185.864 202.342 184.882C202.342 184.099 202.333 183.092 202.316 181.869C202.299 180.647 202.281 179.364 202.247 178.012C202.221 176.66 202.17 175.335 202.118 174.035C202.058 172.726 202.007 171.616 201.947 170.686H201.955Z" fill="white"/>
<path d="M254.512 170.204C254.907 170.341 255.362 170.41 255.894 170.41C256.366 170.41 256.822 170.341 257.242 170.195C258.926 174.878 260.841 179.7 262.97 184.633C265.1 189.574 267.307 194.525 269.583 199.492C269.025 199.44 268.552 199.397 268.174 199.363C267.797 199.337 267.487 199.311 267.247 199.277C267.007 199.251 266.818 199.234 266.68 199.234H266.302C265.907 199.234 265.444 199.26 264.92 199.32C264.387 199.38 263.812 199.432 263.194 199.492C262.635 198.003 262.051 196.47 261.442 194.878C260.841 193.293 260.239 191.787 259.655 190.349C259.518 190.349 259.252 190.332 258.857 190.306C258.462 190.28 258.007 190.254 257.491 190.246C256.976 190.229 256.435 190.22 255.877 190.203C255.319 190.186 254.795 190.186 254.323 190.186C253.876 190.186 253.378 190.186 252.828 190.211C252.279 190.229 251.755 190.246 251.257 190.28C250.75 190.306 250.312 190.332 249.934 190.349C249.556 190.366 249.325 190.375 249.239 190.375C248.26 192.76 247.521 194.662 247.015 196.066C246.508 197.469 246.139 198.623 245.881 199.518C245.263 199.406 244.816 199.337 244.533 199.311C244.249 199.285 244.026 199.268 243.863 199.268C243.468 199.268 243.124 199.294 242.832 199.354C242.54 199.415 242.248 199.466 241.974 199.526L246.542 189.333C247.521 187.112 248.38 185.166 249.118 183.496C249.857 181.826 250.501 180.362 251.051 179.114C251.592 177.866 252.055 176.79 252.433 175.894C252.811 174.999 253.129 174.198 253.378 173.51C253.627 172.821 253.842 172.227 254.031 171.719C254.211 171.211 254.374 170.712 254.512 170.204ZM250.201 187.775C250.93 187.827 251.54 187.861 252.03 187.878C252.519 187.895 252.923 187.904 253.249 187.921C253.567 187.939 253.833 187.939 254.031 187.939H254.58C255.164 187.939 255.834 187.921 256.573 187.895C257.311 187.87 257.938 187.827 258.445 187.766L254.486 177.453L250.209 187.775H250.201Z" fill="white"/>
<path d="M278.205 170.6C278.677 170.66 279.287 170.703 280.008 170.746C280.738 170.789 281.502 170.806 282.318 170.806C282.516 170.806 282.979 170.789 283.727 170.763C284.465 170.737 285.255 170.712 286.08 170.694C286.904 170.677 287.677 170.66 288.39 170.625C289.102 170.6 289.549 170.582 289.712 170.582C291.249 170.582 292.546 170.78 293.602 171.185C294.65 171.59 295.492 172.123 296.127 172.786C296.754 173.449 297.209 174.181 297.475 174.999C297.742 175.817 297.879 176.643 297.879 177.487C297.879 179.45 297.252 181.111 295.99 182.454C294.727 183.806 292.924 184.701 290.571 185.158L293.431 189.282C293.482 189.368 293.757 189.755 294.255 190.435C294.744 191.124 295.346 191.968 296.067 192.958C296.78 193.956 297.578 195.024 298.463 196.178C299.347 197.331 300.206 198.425 301.048 199.458C300.292 199.372 299.657 199.311 299.133 199.268C298.617 199.225 298.008 199.208 297.304 199.208C296.72 199.208 296.187 199.234 295.706 199.277C295.234 199.32 294.624 199.38 293.903 199.466C293.619 199.044 293.388 198.666 293.19 198.33C292.993 197.994 292.769 197.624 292.52 197.211C292.271 196.806 291.962 196.324 291.619 195.756C291.266 195.196 290.794 194.482 290.21 193.612C289.618 192.742 288.879 191.675 287.977 190.409C287.076 189.144 285.985 187.586 284.697 185.735H283.692V191.882C283.692 192.08 283.692 192.553 283.718 193.293C283.735 194.034 283.752 194.834 283.787 195.67C283.812 196.513 283.838 197.305 283.855 198.046C283.873 198.786 283.881 199.26 283.881 199.458C283.435 199.406 282.988 199.346 282.533 199.294C282.086 199.242 281.597 199.208 281.064 199.208C280.592 199.208 280.103 199.234 279.613 199.294C279.124 199.354 278.643 199.406 278.162 199.466C278.187 198.399 278.23 197.254 278.282 196.031C278.333 194.809 278.376 193.603 278.402 192.407C278.428 191.21 278.454 190.091 278.479 189.041C278.505 187.99 278.522 187.078 278.522 186.32V179.08C278.522 178.098 278.488 176.927 278.445 175.559C278.402 174.198 278.325 172.537 278.205 170.565V170.6ZM283.684 183.78C284.104 183.806 284.448 183.832 284.714 183.841C284.98 183.858 285.212 183.866 285.41 183.884C285.607 183.901 285.788 183.901 285.959 183.901H286.543C287.471 183.901 288.287 183.754 288.999 183.453C289.712 183.16 290.322 182.747 290.828 182.231C291.335 181.714 291.713 181.103 291.962 180.397C292.211 179.7 292.34 178.925 292.34 178.081C292.34 177.298 292.245 176.574 292.065 175.911C291.885 175.249 291.584 174.68 291.163 174.207C290.743 173.733 290.176 173.363 289.463 173.096C288.75 172.829 287.857 172.683 286.792 172.657C286.509 172.657 286.071 172.683 285.47 172.717C284.869 172.761 284.276 172.812 283.684 172.864V183.78Z" fill="white"/>
<path d="M306.441 170.574C306.836 170.6 307.42 170.625 308.21 170.66C308.991 170.686 309.893 170.712 310.924 170.737C311.946 170.763 313.036 170.78 314.204 170.798C315.363 170.815 316.54 170.815 317.716 170.815C319.4 170.815 321.152 170.798 322.989 170.763C324.827 170.737 326.794 170.66 328.889 170.548C328.752 171.254 328.683 171.796 328.683 172.192C328.683 172.365 328.7 172.554 328.726 172.761C328.752 172.967 328.812 173.277 328.898 173.664C327.635 173.527 326.27 173.441 324.801 173.415C323.333 173.389 321.907 173.372 320.533 173.38C320.533 173.604 320.533 173.914 320.516 174.31C320.499 174.706 320.49 175.111 320.473 175.533C320.456 175.955 320.456 176.351 320.456 176.712V177.556L320.473 194.154C320.473 194.998 320.499 195.876 320.542 196.789C320.585 197.701 320.662 198.597 320.774 199.466C319.769 199.354 319.048 199.285 318.627 199.26C318.206 199.234 317.888 199.217 317.656 199.217C317.485 199.217 317.218 199.242 316.841 199.277C316.463 199.32 315.793 199.38 314.848 199.466C314.848 199.019 314.874 198.442 314.934 197.736C314.986 197.038 315.037 196.246 315.08 195.377C315.123 194.507 315.166 193.595 315.2 192.639C315.243 191.684 315.26 190.745 315.26 189.815L315.209 177.435V176.678C315.209 176.342 315.2 175.98 315.183 175.602C315.166 175.223 315.157 174.835 315.14 174.439C315.123 174.043 315.114 173.699 315.114 173.389H314.316C313.646 173.389 312.933 173.398 312.195 173.415C311.456 173.432 310.735 173.449 310.056 173.484C309.369 173.51 308.708 173.544 308.081 173.587C307.454 173.63 306.913 173.664 306.467 173.69C306.518 173.406 306.57 173.139 306.613 172.89C306.656 172.64 306.673 172.382 306.673 172.132C306.673 171.882 306.656 171.624 306.63 171.374C306.604 171.125 306.544 170.858 306.458 170.574H306.441Z" fill="white"/>
<path d="M370.127 170.169C372.454 170.169 374.575 170.505 376.49 171.176C378.405 171.848 380.045 172.804 381.411 174.035C382.768 175.266 383.824 176.781 384.562 178.563C385.31 180.345 385.679 182.334 385.679 184.521C385.679 186.819 385.31 188.92 384.571 190.823C383.832 192.717 382.793 194.352 381.445 195.713C380.105 197.073 378.482 198.132 376.576 198.881C374.669 199.63 372.574 200 370.273 200C368.005 200 365.901 199.69 363.969 199.062C362.037 198.433 360.354 197.503 358.928 196.289C357.494 195.067 356.378 193.586 355.562 191.83C354.746 190.074 354.343 188.076 354.334 185.829C354.334 183.221 354.729 180.939 355.528 178.985C356.326 177.031 357.417 175.404 358.817 174.095C360.216 172.786 361.882 171.814 363.815 171.159C365.747 170.514 367.851 170.186 370.118 170.186L370.127 170.169ZM360.105 185.089C360.105 186.94 360.328 188.644 360.757 190.203C361.195 191.761 361.831 193.104 362.673 194.24C363.514 195.377 364.553 196.264 365.781 196.892C367.018 197.521 368.426 197.839 370.024 197.839C371.509 197.839 372.857 197.538 374.077 196.927C375.296 196.324 376.335 195.463 377.203 194.352C378.07 193.242 378.74 191.899 379.212 190.332C379.685 188.756 379.925 187 379.925 185.063C379.925 180.939 379.075 177.78 377.392 175.593C375.709 173.406 373.227 172.313 369.955 172.313C368.358 172.313 366.949 172.657 365.73 173.329C364.51 174 363.48 174.921 362.647 176.092C361.805 177.255 361.17 178.615 360.74 180.156C360.311 181.697 360.096 183.341 360.096 185.08L360.105 185.089Z" fill="white"/>
<path d="M397.057 170.479C397.418 170.505 397.959 170.531 398.672 170.565C399.385 170.591 400.14 170.617 400.939 170.643C401.738 170.669 402.511 170.694 403.275 170.703C404.031 170.72 404.623 170.72 405.035 170.72C406.1 170.72 407.285 170.686 408.582 170.634C409.887 170.574 411.33 170.522 412.927 170.462C412.841 170.798 412.79 171.09 412.764 171.323C412.738 171.564 412.721 171.805 412.721 172.063C412.721 172.347 412.738 172.58 412.764 172.778C412.79 172.976 412.85 173.2 412.936 173.449C411.45 173.363 410.239 173.294 409.303 173.243C408.367 173.191 407.543 173.157 406.847 173.139C406.143 173.122 405.482 173.114 404.855 173.096C404.228 173.079 403.49 173.079 402.648 173.079V182.894H406.1C406.461 182.894 406.899 182.894 407.405 182.868C407.912 182.851 408.445 182.842 409.003 182.825C409.561 182.807 410.119 182.79 410.686 182.756C411.244 182.73 411.777 182.696 412.283 182.67C412.146 183.152 412.077 183.608 412.077 184.056C412.077 184.254 412.094 184.443 412.12 184.624C412.146 184.805 412.206 185.097 412.292 185.485C411.115 185.433 410.008 185.39 408.968 185.364C407.929 185.339 406.95 185.321 406.031 185.321H402.674L402.682 195.601C402.682 195.738 402.682 195.988 402.708 196.341C402.725 196.694 402.734 197.064 402.751 197.46C402.768 197.856 402.785 198.235 402.811 198.597C402.837 198.958 402.871 199.217 402.897 199.354C402.425 199.242 401.935 199.174 401.446 199.148C400.956 199.122 400.441 199.105 399.908 199.105C399.29 199.105 398.784 199.13 398.371 199.174C397.968 199.217 397.555 199.277 397.135 199.363C397.186 198.295 397.238 197.254 397.281 196.221C397.324 195.196 397.367 194.137 397.401 193.044C397.444 191.95 397.47 190.78 397.478 189.523C397.487 188.274 397.495 186.888 397.495 185.373V182.274C397.495 181.335 397.478 180.319 397.444 179.243C397.418 178.158 397.375 176.927 397.315 175.541C397.255 174.155 397.169 172.459 397.057 170.462V170.479Z" fill="white"/>
<path d="M440.545 170.436C442.254 170.548 443.757 170.617 445.062 170.643C446.368 170.669 447.381 170.686 448.111 170.686H448.97C449.287 170.686 449.734 170.669 450.292 170.643C450.85 170.617 451.572 170.582 452.456 170.557C453.341 170.531 454.483 170.488 455.883 170.427C455.797 170.737 455.745 170.978 455.711 171.168C455.685 171.349 455.668 171.572 455.668 171.822C455.668 172.408 455.737 172.915 455.883 173.337C455.041 173.312 454.2 173.268 453.358 173.217C452.516 173.165 451.675 173.122 450.833 173.096C449.992 173.07 449.159 173.053 448.334 173.053H446.084L446.093 182.954C447.02 182.954 447.948 182.945 448.884 182.928C449.82 182.911 450.713 182.894 451.555 182.859C452.396 182.833 453.126 182.799 453.762 182.773C454.388 182.747 454.861 182.704 455.17 182.644C455.084 182.928 455.033 183.178 455.007 183.401C454.981 183.625 454.964 183.875 454.964 184.159C454.964 184.745 455.033 185.227 455.179 185.588C454.449 185.537 453.736 185.485 453.032 185.442C452.327 185.399 451.615 185.373 450.885 185.356C450.155 185.339 449.399 185.33 448.618 185.313C447.836 185.296 446.995 185.296 446.093 185.296V196.711C446.557 196.711 447.226 196.711 448.12 196.685C449.013 196.668 449.966 196.651 450.979 196.617C451.984 196.591 452.963 196.548 453.899 196.505C454.835 196.462 455.582 196.427 456.149 196.401C456.012 196.711 455.943 197.176 455.943 197.787C455.943 198.399 456.012 198.915 456.158 199.303C453.581 199.139 451.014 199.053 448.472 199.062C447.209 199.062 445.955 199.087 444.71 199.13C443.465 199.174 442.082 199.242 440.571 199.328C440.623 198.209 440.683 196.987 440.734 195.687C440.786 194.378 440.829 193.078 440.854 191.77C440.88 190.461 440.897 189.195 440.914 187.956C440.923 186.725 440.932 185.614 440.932 184.633C440.932 183.849 440.923 182.842 440.906 181.619C440.889 180.397 440.872 179.114 440.837 177.762C440.811 176.411 440.76 175.085 440.708 173.785C440.648 172.476 440.597 171.366 440.537 170.436H440.545Z" fill="white"/>
<path d="M467.012 170.402C467.347 170.488 467.794 170.548 468.361 170.591C468.919 170.634 469.425 170.651 469.872 170.651C470.404 170.651 470.894 170.625 471.34 170.582C471.787 170.539 472.294 170.479 472.852 170.393C472.74 173.036 472.646 175.722 472.569 178.46C472.491 181.198 472.448 183.97 472.448 186.776C472.448 190.005 472.5 193.259 472.586 196.548H473.633C474.638 196.548 475.651 196.539 476.656 196.522C477.661 196.505 478.606 196.479 479.473 196.436C480.34 196.393 481.096 196.35 481.74 196.307C482.384 196.264 482.831 196.212 483.088 196.16C483.002 196.41 482.951 196.66 482.925 196.901C482.899 197.142 482.882 197.443 482.882 197.805C482.882 198.14 482.899 198.39 482.925 198.562C482.951 198.734 483.011 198.967 483.097 199.277C480.856 199.165 479.078 199.105 477.764 199.096C476.45 199.087 475.523 199.062 474.99 199.036C474.458 199.036 473.487 199.053 472.088 199.079C470.688 199.105 469.005 199.182 467.047 199.294C467.072 198.313 467.098 197.262 467.124 196.152C467.15 195.041 467.175 193.974 467.201 192.949C467.227 191.925 467.253 190.969 467.279 190.082C467.304 189.195 467.321 188.472 467.321 187.913V180.371C467.321 180.259 467.296 179.76 467.27 178.873C467.244 177.986 467.21 176.996 467.184 175.886C467.158 174.775 467.115 173.699 467.072 172.64C467.03 171.581 467.004 170.832 467.004 170.384L467.012 170.402Z" fill="white"/>
<path d="M492.81 170.376C494.518 170.488 496.021 170.557 497.327 170.582C498.632 170.608 499.645 170.625 500.375 170.625H501.234C501.552 170.625 501.998 170.608 502.556 170.582C503.115 170.557 503.836 170.522 504.721 170.496C505.605 170.47 506.747 170.427 508.147 170.367C508.061 170.677 508.01 170.918 507.975 171.108C507.95 171.288 507.932 171.512 507.932 171.762C507.932 172.347 508.001 172.855 508.147 173.277C507.305 173.251 506.464 173.208 505.622 173.157C504.781 173.105 503.939 173.062 503.098 173.036C502.256 173.01 501.423 172.993 500.598 172.993H498.349L498.357 182.894C499.285 182.894 500.212 182.885 501.148 182.868C502.084 182.851 502.977 182.833 503.819 182.799C504.66 182.773 505.39 182.739 506.026 182.713C506.653 182.687 507.125 182.644 507.434 182.584C507.348 182.868 507.297 183.117 507.271 183.341C507.245 183.565 507.228 183.815 507.228 184.099C507.228 184.684 507.297 185.166 507.443 185.528C506.713 185.476 506 185.425 505.296 185.382C504.592 185.339 503.879 185.313 503.149 185.296C502.419 185.278 501.663 185.27 500.882 185.252C500.1 185.235 499.259 185.235 498.357 185.235V196.651C498.821 196.651 499.491 196.651 500.384 196.625C501.277 196.608 502.23 196.591 503.243 196.556C504.248 196.53 505.227 196.487 506.163 196.444C507.099 196.401 507.846 196.367 508.413 196.341C508.276 196.651 508.207 197.116 508.207 197.727C508.207 198.338 508.276 198.855 508.422 199.242C505.846 199.079 503.278 198.993 500.736 199.001C499.474 199.001 498.22 199.027 496.975 199.07C495.729 199.113 494.347 199.182 492.835 199.268C492.887 198.149 492.947 196.927 492.998 195.627C493.05 194.318 493.093 193.018 493.119 191.709C493.144 190.401 493.162 189.135 493.179 187.895C493.187 186.664 493.196 185.554 493.196 184.572C493.196 183.789 493.187 182.782 493.17 181.559C493.153 180.337 493.136 179.054 493.102 177.702C493.076 176.351 493.024 175.025 492.973 173.725C492.913 172.416 492.861 171.306 492.801 170.376H492.81Z" fill="white"/>
<path d="M515.962 170.35C516.494 170.462 517.07 170.531 517.688 170.557C518.306 170.582 518.847 170.6 519.328 170.6C519.835 170.6 520.342 170.574 520.865 170.514C521.381 170.453 521.922 170.402 522.48 170.341C522.729 171.271 523.055 172.33 523.45 173.518C523.845 174.715 524.275 175.972 524.756 177.306C525.236 178.641 525.735 180.001 526.25 181.387C526.765 182.773 527.297 184.133 527.83 185.45C528.362 186.768 528.886 188.025 529.384 189.221C529.891 190.418 530.363 191.46 530.818 192.355C532.665 187.801 534.279 183.72 535.662 180.096C537.044 176.471 538.195 173.217 539.114 170.324C539.509 170.384 539.87 170.436 540.205 170.488C540.54 170.548 540.823 170.574 541.046 170.574C541.33 170.574 541.63 170.548 541.974 170.488C542.309 170.427 542.669 170.376 543.064 170.316C542.506 171.383 541.75 172.967 540.797 175.076C539.844 177.186 538.813 179.562 537.697 182.222C536.581 184.874 535.439 187.68 534.279 190.625C533.12 193.578 532.055 196.436 531.076 199.217C530.741 199.13 530.483 199.07 530.32 199.027C530.149 198.984 529.874 198.967 529.479 198.967C529.032 198.967 528.697 198.993 528.474 199.053C528.251 199.113 527.959 199.165 527.589 199.225C526.911 197.288 526.327 195.627 525.82 194.232C525.314 192.846 524.876 191.709 524.515 190.84L521.441 183.384C520.848 181.981 520.384 180.862 520.05 180.018C519.715 179.174 519.44 178.494 519.225 177.978C519.01 177.461 518.83 177.013 518.675 176.635C518.521 176.256 518.341 175.817 518.126 175.326C517.911 174.835 517.645 174.207 517.301 173.449C516.967 172.692 516.511 171.65 515.953 170.333L515.962 170.35Z" fill="white"/>
<path d="M557.131 169.894C557.526 170.031 557.981 170.1 558.513 170.1C558.986 170.1 559.441 170.031 559.862 169.885C561.545 174.568 563.46 179.39 565.59 184.323C567.719 189.264 569.926 194.215 572.202 199.182C571.644 199.13 571.172 199.087 570.794 199.053C570.416 199.027 570.107 199.001 569.866 198.967C569.626 198.941 569.437 198.924 569.299 198.924H568.922C568.527 198.924 568.063 198.95 567.539 199.01C567.007 199.07 566.431 199.122 565.813 199.182C565.255 197.693 564.671 196.16 564.061 194.568C563.46 192.984 562.859 191.477 562.275 190.039C562.137 190.039 561.871 190.022 561.476 189.996C561.081 189.97 560.626 189.944 560.111 189.936C559.595 189.919 559.054 189.91 558.496 189.893C557.938 189.876 557.414 189.876 556.942 189.876C556.495 189.876 555.997 189.876 555.448 189.901C554.898 189.919 554.374 189.936 553.876 189.97C553.369 189.996 552.931 190.022 552.554 190.039C552.176 190.056 551.944 190.065 551.858 190.065C550.879 192.45 550.14 194.352 549.634 195.756C549.127 197.159 548.758 198.313 548.5 199.208C547.882 199.096 547.435 199.027 547.152 199.001C546.869 198.975 546.645 198.958 546.482 198.958C546.087 198.958 545.744 198.984 545.452 199.044C545.16 199.105 544.868 199.156 544.593 199.217L549.161 189.023C550.14 186.802 550.999 184.856 551.738 183.186C552.476 181.516 553.12 180.053 553.67 178.804C554.211 177.556 554.675 176.48 555.053 175.584C555.43 174.689 555.748 173.888 555.997 173.2C556.246 172.511 556.461 171.917 556.65 171.409C556.83 170.901 556.993 170.402 557.131 169.894ZM552.82 187.465C553.55 187.517 554.159 187.551 554.649 187.568C555.138 187.586 555.542 187.594 555.868 187.611C556.186 187.629 556.452 187.629 556.65 187.629H557.2C557.783 187.629 558.453 187.611 559.192 187.586C559.93 187.56 560.557 187.517 561.064 187.456L557.105 177.143L552.828 187.465H552.82Z" fill="white"/>
<path d="M574.899 170.29C575.294 170.316 575.878 170.341 576.668 170.376C577.449 170.402 578.351 170.427 579.381 170.453C580.403 170.479 581.494 170.496 582.662 170.514C583.821 170.531 584.998 170.531 586.174 170.531C587.857 170.531 589.609 170.514 591.447 170.479C593.285 170.453 595.251 170.376 597.347 170.264C597.209 170.97 597.141 171.512 597.141 171.908C597.141 172.08 597.158 172.27 597.183 172.476C597.209 172.683 597.269 172.993 597.355 173.38C596.093 173.243 594.727 173.157 593.259 173.131C591.79 173.105 590.365 173.088 588.991 173.096C588.991 173.32 588.991 173.63 588.974 174.026C588.957 174.422 588.948 174.827 588.931 175.249C588.914 175.67 588.914 176.066 588.914 176.428V177.272L588.931 193.87C588.931 194.714 588.957 195.592 588.999 196.505C589.042 197.417 589.12 198.313 589.231 199.182C588.227 199.07 587.505 199.001 587.084 198.975C586.664 198.95 586.346 198.932 586.114 198.932C585.942 198.932 585.676 198.958 585.298 198.993C584.92 199.036 584.251 199.096 583.306 199.182C583.306 198.734 583.332 198.158 583.392 197.452C583.443 196.754 583.495 195.962 583.538 195.093C583.581 194.223 583.624 193.311 583.658 192.355C583.701 191.399 583.718 190.461 583.718 189.531L583.667 177.151V176.394C583.667 176.058 583.658 175.696 583.641 175.317C583.624 174.939 583.615 174.551 583.598 174.155C583.581 173.759 583.572 173.415 583.572 173.105H582.773C582.104 173.105 581.391 173.114 580.652 173.131C579.914 173.148 579.192 173.165 578.514 173.2C577.827 173.225 577.166 173.26 576.539 173.303C575.912 173.346 575.371 173.38 574.924 173.406C574.976 173.122 575.027 172.855 575.07 172.606C575.113 172.356 575.13 172.098 575.13 171.848C575.13 171.598 575.113 171.34 575.087 171.09C575.062 170.841 575.002 170.574 574.916 170.29H574.899Z" fill="white"/>
<path d="M606.415 170.255C606.553 170.281 606.776 170.316 607.085 170.341C607.394 170.367 607.712 170.402 608.03 170.427C608.347 170.453 608.648 170.479 608.914 170.488C609.18 170.505 609.352 170.505 609.438 170.505C610.22 170.505 611.199 170.419 612.375 170.247C612.289 170.755 612.22 171.435 612.169 172.287C612.117 173.148 612.066 174.095 612.023 175.128C611.98 176.17 611.954 177.255 611.946 178.391C611.929 179.527 611.928 180.647 611.928 181.74C611.928 184.658 611.937 187.026 611.954 188.834C611.971 190.642 611.997 192.157 612.04 193.362C612.083 194.568 612.126 195.592 612.169 196.436C612.212 197.279 612.272 198.175 612.358 199.13C611.542 199.044 610.924 198.984 610.486 198.941C610.048 198.898 609.696 198.881 609.412 198.881C608.94 198.881 608.408 198.915 607.841 198.984C607.265 199.053 606.784 199.105 606.389 199.13C606.553 197.279 606.673 194.929 606.742 192.071C606.81 189.221 606.836 186.07 606.836 182.618C606.836 180.431 606.827 178.623 606.81 177.203C606.793 175.782 606.767 174.629 606.724 173.725C606.681 172.829 606.63 172.115 606.578 171.598C606.518 171.082 606.467 170.625 606.407 170.229L606.415 170.255Z" fill="white"/>
<path d="M639.263 169.885C641.59 169.885 643.711 170.221 645.626 170.892C647.541 171.564 649.182 172.519 650.547 173.751C651.904 174.982 652.96 176.497 653.699 178.279C654.446 180.061 654.815 182.05 654.815 184.237C654.815 186.535 654.446 188.636 653.707 190.539C652.969 192.433 651.93 194.068 650.581 195.429C649.242 196.789 647.619 197.848 645.712 198.597C643.806 199.346 641.71 199.716 639.409 199.716C637.107 199.716 635.038 199.406 633.106 198.777C631.173 198.149 629.49 197.219 628.065 196.005C626.63 194.783 625.514 193.302 624.698 191.546C623.882 189.79 623.479 187.792 623.47 185.545C623.47 182.937 623.865 180.655 624.664 178.701C625.463 176.747 626.553 175.119 627.953 173.811C629.353 172.502 631.019 171.529 632.951 170.875C634.883 170.229 636.987 169.902 639.254 169.902L639.263 169.885ZM629.241 184.805C629.241 186.656 629.464 188.36 629.894 189.919C630.332 191.477 630.967 192.82 631.809 193.956C632.65 195.093 633.69 195.98 634.918 196.608C636.154 197.236 637.563 197.555 639.16 197.555C640.646 197.555 641.994 197.254 643.213 196.642C644.433 196.04 645.472 195.179 646.339 194.068C647.206 192.958 647.876 191.615 648.349 190.048C648.821 188.472 649.061 186.716 649.061 184.779C649.061 180.655 648.211 177.496 646.528 175.309C644.845 173.122 642.363 172.029 639.091 172.029C637.494 172.029 636.085 172.373 634.866 173.045C633.647 173.716 632.616 174.637 631.783 175.808C630.941 176.97 630.306 178.331 629.877 179.872C629.447 181.413 629.233 183.057 629.233 184.796L629.241 184.805Z" fill="white"/>
<path d="M665.876 187.215C665.876 186.036 665.867 184.676 665.85 183.126C665.833 181.585 665.824 180.018 665.824 178.434C665.824 176.85 665.816 175.335 665.799 173.888C665.781 172.442 665.773 171.211 665.773 170.204C665.97 170.264 666.134 170.29 666.28 170.29H666.786C666.958 170.29 667.113 170.29 667.267 170.264C667.422 170.247 667.585 170.229 667.748 170.204C669.517 172.141 671.329 174.078 673.193 176.032C675.056 177.978 676.834 179.794 678.517 181.482L685.542 188.378C685.653 188.49 685.868 188.688 686.169 188.963C686.478 189.247 686.967 189.652 687.637 190.186V180.371C687.628 178.942 687.585 177.306 687.5 175.464C687.414 173.621 687.285 171.865 687.113 170.178C687.422 170.264 687.706 170.324 687.972 170.367C688.238 170.41 688.556 170.427 688.917 170.427C689.277 170.427 689.595 170.402 689.861 170.367C690.127 170.324 690.402 170.264 690.677 170.178C690.514 172.253 690.394 174.534 690.325 177.005C690.256 179.476 690.222 182.058 690.23 184.753C690.23 187.172 690.239 189.591 690.256 192.019C690.273 194.447 690.299 196.866 690.325 199.285C690.127 199.225 689.964 199.199 689.844 199.199H689.449C689.389 199.199 689.277 199.199 689.088 199.225C688.908 199.242 688.745 199.26 688.607 199.285C687.233 197.83 685.67 196.186 683.919 194.361C682.167 192.536 680.372 190.711 678.534 188.868C676.696 187.035 674.902 185.261 673.15 183.548C671.398 181.835 669.835 180.354 668.461 179.088C668.461 180.827 668.461 182.627 668.461 184.478C668.461 186.329 668.487 188.145 668.53 189.91C668.572 191.675 668.624 193.354 668.684 194.921C668.744 196.496 668.839 197.882 668.985 199.087C668.092 198.924 667.456 198.838 667.095 198.838C666.589 198.838 666.031 198.924 665.412 199.096C665.498 197.744 665.567 196.513 665.635 195.385C665.704 194.266 665.756 193.233 665.782 192.286C665.807 191.348 665.824 190.461 665.842 189.635C665.859 188.808 665.859 187.999 665.859 187.215H665.876Z" fill="white"/>
</svg>
