<svg width="150" height="20" viewBox="0 0 150 20" fill="none" xmlns="http://www.w3.org/2000/svg">
<path d="M48.133 0.333145H44.2796C43.6971 2.12309 40.4518 7.65951 38.0676 11.4907C35.601 7.66234 32.2734 2.12592 31.6624 0.333145H27.809C28.2239 2.26143 28.2523 6.77865 28.2523 10.0028C28.2523 13.227 28.2239 17.7442 27.809 19.6725H31.5516C31.1623 17.8261 31.1083 9.64709 31.1083 5.45737C33.5209 9.12196 35.8511 12.9785 37.4567 15.8413H38.4825C40.0341 12.9475 42.4183 9.09091 44.8309 5.4009C44.8309 9.55957 44.7769 17.7979 44.3876 19.6697H48.1301C47.7153 17.7414 47.6868 13.2242 47.6868 10C47.6868 6.77583 47.7153 2.25861 48.1301 0.330322M0 10.0847C0 15.7877 4.26826 20 10.0085 20C15.7488 20 20.1847 15.6748 20.1847 9.91812C20.1847 4.16149 15.9165 0.00282326 10.1762 0.00282326C4.43592 0.00282326 0 4.32806 0 10.0847ZM3.21682 9.6725C3.21682 5.34726 5.85109 2.48165 9.81529 2.48165C14.2796 2.48165 16.9679 6.06155 16.9679 10.3331C16.9679 14.6047 14.3336 17.524 10.3694 17.524C5.90509 17.524 3.21682 13.9441 3.21682 9.6725ZM56.7292 19.6725H60.4717C60.0824 17.8543 60.0284 10.4715 60.0284 5.37549C64.1034 10.1694 68.0961 14.7967 71.1196 19.6725H74.4189C74.004 17.5522 73.9471 13.2552 73.9471 10.0028C73.9471 6.75042 74.004 2.26143 74.4189 0.333145H70.6763C71.0656 2.15133 71.1196 9.53416 71.1196 14.6302C67.0446 9.81084 63.052 5.09881 60.0284 0.333145H56.7292C57.1441 2.26143 57.1725 6.77865 57.1725 10.0028C57.1725 13.227 57.1441 17.7442 56.7292 19.6725ZM83.0151 19.6725H86.7576C86.3427 17.7442 86.3143 13.2552 86.3143 10.0311C86.3143 6.80689 86.3427 2.26426 86.7576 0.333145H83.0151C83.43 2.26143 83.4584 6.80689 83.4584 10.0311C83.4584 13.2552 83.43 17.7442 83.0151 19.6725ZM93.0236 0.333145C94.632 2.26143 97.738 7.13721 100.844 12.5099V15.127C100.844 16.7787 100.816 18.4049 100.54 19.6725H104.254C103.976 18.4049 103.95 16.7815 103.95 15.127V12.5099C107.056 7.13721 110.134 2.26143 111.77 0.333145H107.749C107.306 2.28967 104.422 6.94523 102.62 9.78261C100.762 6.94523 97.7948 2.28967 97.3231 0.333145H93.0264H93.0236ZM112.487 19.6697H116.508C116.786 17.7132 120.307 10.4404 122.33 6.30999C124.382 10.4433 127.988 17.7132 128.264 19.6697H132.56C131.23 17.7414 126.516 8.40203 122.523 0C118.531 8.40203 114.038 17.7414 112.487 19.6697ZM133.697 3.52626C135.638 3.11406 137.911 3.08583 140.406 3.08583C140.406 8.59401 140.378 17.7414 139.963 19.6697H143.734C143.319 17.7414 143.291 8.59684 143.291 3.08583C145.786 3.08583 148.059 3.11406 150 3.52626V0.333145H133.697V3.52908V3.52626Z" fill="#FFFFFE"/>
</svg>
