<svg width="50" height="50" viewBox="0 0 50 50" fill="none" xmlns="http://www.w3.org/2000/svg">
<circle cx="25" cy="25" r="25" transform="matrix(-1 0 0 1 50 0)" fill="#D9D9D9" fill-opacity="0.1"/>
<path d="M31.8054 26.1667L22.9597 34.3103C22.8498 34.4117 22.7117 34.4615 22.574 34.4615C22.4175 34.4615 22.262 34.3968 22.1486 34.27C21.936 34.0316 21.9535 33.6629 22.1885 33.4469L30.6956 25.6146L22.9844 16.9741C22.7714 16.7357 22.7892 16.367 23.0243 16.151C23.2587 15.9347 23.6218 15.9531 23.8347 16.1915L31.853 25.176C31.979 25.3173 32.0224 25.5042 31.9894 25.6782C32.0063 25.8554 31.9455 26.0382 31.8054 26.1667Z" fill="#DBC0C0"/>
</svg>
